<?xml version="1.0" standalone="no"?>
<!DOCTYPE svg PUBLIC "-//W3C//DTD SVG 20010904//EN"
 "http://www.w3.org/TR/2001/REC-SVG-20010904/DTD/svg10.dtd">
<svg version="1.0" xmlns="http://www.w3.org/2000/svg"
 width="305.000000pt" height="305.000000pt" viewBox="0 0 305.000000 305.000000"
 preserveAspectRatio="xMidYMid meet">
<metadata>
Created by potrace 1.11, written by Peter Selinger 2001-2013
</metadata>
<g transform="translate(0.000000,305.000000) scale(0.100000,-0.100000)"
fill="#000000" stroke="none">
<path d="M2110 2840 c-101 -27 -141 -82 -170 -235 -10 -51 -140 -502 -290
-1010 -23 -77 -48 -162 -55 -190 -8 -27 -18 -61 -23 -74 -6 -16 -3 -48 10
-100 101 -419 87 -763 -38 -927 -19 -25 -32 -49 -29 -53 2 -5 21 -12 42 -16
34 -6 1093 -9 1098 -3 36 55 234 412 230 416 -3 3 -234 6 -513 6 -445 1 -507
3 -503 16 2 8 131 431 288 940 279 906 285 926 279 990 -7 80 -44 159 -92 195
-62 48 -157 66 -234 45z"/>
<path d="M1090 2208 c0 -4 9 -31 19 -60 37 -99 52 -158 76 -298 9 -47 17 -96
20 -109 20 -102 27 -436 12 -544 -31 -225 -124 -402 -257 -487 -158 -101 -399
-97 -620 12 -99 48 -170 90 -222 131 -21 16 -38 25 -38 20 1 -4 53 -51 116
-103 64 -52 121 -100 128 -105 49 -43 227 -169 323 -229 248 -154 417 -216
575 -211 177 6 277 117 306 337 9 71 8 230 -2 294 -14 86 -26 160 -31 184 -46
232 -132 506 -276 871 -84 212 -128 314 -129 297z"/>
<path d="M521 1393 c-109 -44 -175 -133 -188 -253 -24 -231 225 -407 431 -306
259 127 226 501 -50 571 -75 19 -125 16 -193 -12z"/>
</g>
</svg>
